<?xml version="1.0" standalone="no"?>
<!DOCTYPE svg PUBLIC "-//W3C//DTD SVG 20010904//EN"
 "http://www.w3.org/TR/2001/REC-SVG-20010904/DTD/svg10.dtd">
<svg version="1.0" xmlns="http://www.w3.org/2000/svg"
 width="728.000000pt" height="388.000000pt" viewBox="0 0 728.000000 388.000000"
 preserveAspectRatio="xMidYMid meet">
<metadata>
Created by potrace 1.15, written by Peter Selinger 2001-2017
</metadata>
<g transform="translate(0.000000,388.000000) scale(0.100000,-0.100000)"
fill="#000000" stroke="none">
<path d="M2598 3849 c36 -11 43 -29 12 -29 -11 0 -23 -7 -26 -15 -7 -16 -74
-22 -74 -6 0 5 -14 3 -31 -6 -44 -22 -25 -34 60 -37 39 -1 76 -7 82 -13 7 -7
-7 -42 -47 -112 -31 -56 -54 -104 -51 -107 3 -3 20 24 38 60 18 35 41 75 50
87 l17 23 34 -36 c49 -53 88 -99 88 -105 0 -2 12 -20 26 -39 25 -32 28 -33 44
-19 15 14 21 14 39 3 12 -7 21 -18 21 -25 0 -7 5 -13 11 -13 6 0 9 -7 6 -14
-4 -10 -1 -13 9 -9 19 7 18 -21 -1 -37 -10 -9 -15 -9 -15 -1 0 6 -10 11 -23
11 -13 0 -28 5 -35 12 -9 9 -12 8 -12 -5 0 -17 -33 -41 -44 -30 -3 3 -3 18 -1
32 3 14 3 21 -1 14 -3 -7 -12 -9 -20 -6 -10 4 -15 0 -14 -8 4 -28 0 -39 -16
-39 -12 0 -15 6 -11 21 8 31 -9 69 -31 69 -14 0 -21 -11 -28 -41 -8 -36 -13
-42 -37 -45 -15 -1 -25 2 -22 7 4 5 2 9 -4 9 -5 0 -14 -6 -18 -13 -4 -8 -28
-24 -53 -38 -24 -13 -73 -43 -109 -67 -35 -23 -86 -50 -113 -59 -49 -18 -63
-33 -30 -33 12 0 5 -12 -26 -41 -23 -22 -46 -37 -51 -34 -14 8 -40 -33 -34
-55 3 -12 -9 -33 -36 -60 -50 -51 -58 -78 -36 -119 11 -21 14 -43 9 -66 -6
-31 -4 -35 16 -35 19 0 21 4 15 33 -4 17 -14 44 -21 59 -20 38 -17 72 6 93 11
10 20 13 20 7 0 -21 18 -13 26 11 4 12 17 35 30 50 13 16 24 38 24 49 0 16 3
18 13 9 10 -8 21 -3 45 22 17 17 32 39 34 47 3 16 27 39 41 40 5 0 5 -6 2 -12
-4 -7 -1 -6 7 2 7 8 33 25 58 37 57 29 75 40 127 81 29 22 52 32 77 32 34 0
35 -2 41 -44 4 -25 13 -47 21 -50 22 -8 16 -37 -13 -70 l-28 -31 31 28 c27 24
35 27 53 18 12 -7 21 -17 21 -24 0 -7 12 -17 28 -23 15 -6 34 -23 42 -38 13
-25 13 -31 -2 -56 -20 -34 -14 -42 19 -27 19 9 26 8 34 -4 7 -12 9 -12 9 1 1
8 3 32 6 54 4 25 2 36 -4 32 -6 -4 -20 14 -32 41 -11 27 -37 63 -58 80 -20 18
-31 33 -24 33 6 0 12 5 12 11 0 7 -11 8 -30 4 -30 -6 -30 -6 -30 34 0 30 4 41
15 41 10 0 15 -10 15 -31 0 -20 -4 -28 -12 -23 -7 4 -8 3 -4 -5 9 -14 37 4 35
23 -3 28 3 36 26 36 23 0 25 -3 19 -27 -10 -43 -10 -45 5 -51 8 -3 11 0 7 7
-10 16 16 82 30 77 6 -2 17 1 23 7 6 6 13 8 17 5 7 -8 -25 -58 -37 -58 -5 0
-9 -16 -9 -35 0 -19 5 -35 10 -35 6 0 10 12 10 28 1 15 9 37 19 50 23 27 30
28 29 5 -1 -10 15 -53 36 -95 21 -42 41 -97 43 -122 6 -48 23 -74 23 -35 0 19
2 20 17 8 15 -13 15 -12 2 8 -11 18 -11 25 -1 35 15 15 15 23 -1 40 -7 7 -27
45 -44 85 -27 61 -29 74 -17 84 8 6 14 19 14 29 0 26 33 53 48 38 9 -9 12 -8
12 3 0 9 -11 21 -25 27 -21 10 -103 85 -297 273 -33 32 -48 54 -48 72 0 14 -4
29 -10 32 -5 3 -10 14 -10 25 0 20 -20 30 -58 29 -26 -1 -25 -1 6 -10z"/>
<path d="M5775 3791 c3 -6 27 -24 53 -42 26 -17 60 -47 75 -65 16 -19 43 -42
60 -51 53 -27 217 -167 217 -185 0 -4 -15 -15 -32 -24 -38 -19 -73 -53 -64
-61 3 -4 14 1 23 9 10 9 38 21 61 28 53 14 62 7 129 -93 75 -113 135 -240 147
-309 4 -24 12 -38 21 -38 8 0 15 3 15 8 0 11 -31 96 -39 107 -4 5 -18 37 -31
70 -13 33 -54 105 -91 160 -62 94 -66 104 -67 159 -1 33 -5 62 -10 65 -4 3
-18 26 -30 51 -13 25 -20 34 -16 20 3 -14 12 -38 20 -53 9 -20 10 -36 4 -53
-11 -29 -15 -29 -38 -6 -10 9 -33 30 -51 45 -17 15 -29 32 -27 36 3 5 -4 17
-15 27 -19 17 -20 17 -13 0 5 -14 3 -17 -7 -14 -8 2 -15 13 -17 24 -4 22 -51
59 -179 137 -90 57 -110 66 -98 48z"/>
<path d="M2155 3645 c-11 -13 -41 -31 -67 -40 -26 -9 -50 -21 -53 -26 -4 -5
-15 -9 -25 -9 -11 0 -30 -9 -42 -21 -80 -72 -190 -154 -228 -172 -88 -40 -142
-89 -179 -163 -40 -79 -41 -103 -5 -157 16 -24 23 -45 19 -58 -4 -13 3 -32 23
-57 16 -20 32 -54 35 -75 8 -54 37 -127 49 -124 6 1 13 -4 16 -12 3 -8 0 -11
-7 -7 -15 10 -14 1 6 -37 16 -32 16 -32 26 -9 7 15 7 29 0 45 -6 12 -21 56
-33 97 -37 123 -51 160 -61 160 -5 0 -9 -7 -9 -16 0 -9 -6 -14 -12 -11 -20 6
-15 160 7 232 11 38 29 71 49 90 50 47 118 100 135 104 9 2 38 24 66 48 49 44
124 85 182 97 42 10 111 58 139 99 29 43 29 47 7 47 -10 0 -27 -11 -38 -25z"/>
<path d="M5546 3632 c-8 -8 -46 -16 -97 -19 -86 -6 -117 -17 -205 -73 -26 -16
-67 -32 -93 -36 -43 -6 -80 -27 -163 -95 -15 -12 -25 -26 -22 -31 3 -5 1 -15
-5 -22 -6 -7 -9 -21 -5 -30 3 -9 1 -16 -5 -16 -6 0 -11 -6 -11 -14 0 -8 -12
-23 -26 -33 -26 -19 -26 -19 -13 -82 11 -58 11 -65 -5 -77 -15 -11 -11 -12 29
-9 41 2 48 0 62 -24 9 -14 27 -36 40 -49 13 -13 23 -30 23 -39 0 -13 -3 -14
-12 -5 -7 7 -16 12 -21 12 -5 0 -2 -7 7 -15 8 -8 22 -15 31 -15 9 0 13 -5 9
-11 -3 -6 -15 -9 -25 -6 -20 5 -27 -17 -9 -28 6 -3 10 -11 10 -16 0 -6 -27 22
-60 61 -33 40 -73 84 -88 99 -16 14 -35 41 -43 59 -7 17 -17 32 -21 32 -5 0
-8 7 -8 15 0 8 -5 15 -10 15 -6 0 -4 -13 5 -31 16 -29 16 -30 -4 -20 -11 6
-23 16 -26 21 -8 13 -79 45 -132 59 -25 7 -64 9 -93 5 l-50 -7 16 38 c11 27
14 52 9 84 l-7 46 -15 -29 c-10 -20 -12 -31 -4 -35 8 -5 7 -22 -1 -59 -13 -51
-13 -52 -50 -52 -21 0 -38 -4 -38 -10 0 -5 -9 -10 -21 -10 -13 0 -18 4 -13 12
5 7 2 9 -9 5 -8 -3 -33 -9 -54 -13 -38 -7 -53 -18 -53 -42 0 -10 7 -9 30 3 37
19 51 19 44 0 -8 -19 -6 -19 51 6 53 24 188 30 208 10 6 -6 22 -11 37 -11 43
-1 77 -23 152 -98 40 -40 78 -76 83 -82 6 -5 31 -28 56 -52 26 -24 61 -69 79
-100 17 -32 36 -58 40 -58 14 0 24 -110 11 -123 -6 -6 -11 -18 -11 -27 0 -62
-147 -269 -203 -286 -12 -3 -35 -12 -52 -19 -16 -7 -65 -21 -108 -30 -42 -10
-80 -21 -83 -26 -3 -5 3 -6 13 -2 12 4 15 3 8 -4 -6 -7 -33 -8 -70 -3 -37 4
-65 3 -73 -3 -9 -7 -16 -7 -24 1 -7 7 -24 12 -39 12 -49 0 -113 36 -179 101
-36 35 -70 73 -77 84 -6 11 -12 15 -12 9 -1 -6 10 -28 24 -48 30 -44 31 -50 6
-36 -11 5 -34 10 -51 10 -24 0 -33 6 -42 28 -11 25 -12 25 -15 6 -4 -19 -11
-22 -60 -23 -30 0 -64 -3 -75 -7 -15 -4 -18 -3 -13 6 5 9 4 11 -4 6 -7 -4 -15
2 -20 16 -6 13 -10 17 -10 11 -1 -7 -6 -13 -12 -13 -6 0 -9 9 -6 20 3 11 2 20
-3 20 -13 0 -19 -40 -9 -72 6 -23 5 -34 -4 -40 -16 -10 -26 1 -42 48 -11 31
-14 34 -14 14 0 -14 4 -34 8 -45 10 -24 -4 -45 -30 -45 -11 0 -19 -7 -19 -16
0 -20 -20 -14 -34 10 -8 14 -8 20 2 23 6 3 12 10 12 16 0 8 -4 7 -12 -1 -21
-21 -30 -13 -23 21 7 32 7 32 -10 9 -16 -21 -15 -25 3 -56 11 -19 18 -37 15
-40 -14 -14 -64 -4 -83 16 -16 18 -20 19 -20 6 0 -9 9 -20 20 -23 29 -9 25
-16 -24 -47 -64 -41 -72 -42 -91 -16 l-16 23 6 -27 c6 -23 3 -28 -29 -39 -20
-7 -36 -17 -36 -21 0 -4 -5 -8 -11 -8 -6 0 -22 -9 -36 -20 -30 -24 -63 -26
-63 -5 0 8 -4 15 -10 15 -14 0 -12 -28 3 -33 8 -3 7 -10 -7 -26 -11 -12 -26
-19 -33 -17 -8 3 -13 -2 -13 -14 0 -11 -12 -33 -27 -49 -34 -36 -66 -80 -75
-103 -8 -20 -29 -23 -45 -7 -7 7 -13 7 -17 1 -4 -6 2 -17 13 -24 10 -7 21 -22
23 -33 4 -17 6 -16 16 10 19 47 33 68 91 131 30 32 47 46 37 31 -26 -42 -13
-43 19 -2 30 40 38 39 40 -5 1 -17 7 -36 13 -42 9 -9 10 1 6 39 -6 47 -4 53
30 90 34 38 133 99 144 88 3 -3 -3 -14 -13 -25 -10 -11 -15 -23 -12 -26 3 -4
16 10 28 30 16 28 26 35 40 31 12 -4 21 -1 25 9 3 9 12 16 20 16 11 0 10 -6
-2 -35 -7 -19 -14 -42 -14 -52 1 -10 9 4 18 31 12 35 26 55 47 67 36 21 49 23
39 7 -4 -7 6 -1 23 15 16 15 35 27 41 27 8 0 10 -9 6 -27 -4 -21 1 -16 19 17
24 44 87 88 129 89 9 1 19 5 22 10 8 13 122 25 138 14 7 -4 20 -8 28 -9 79 -2
129 -23 219 -91 3 -2 -4 -10 -15 -18 -10 -8 -14 -15 -7 -15 6 0 19 7 28 16 10
10 20 13 28 7 7 -5 28 -10 47 -12 19 -1 44 -11 55 -21 12 -11 25 -20 30 -20 5
0 0 7 -11 15 -16 12 -17 14 -2 15 23 0 49 -11 44 -19 -2 -3 19 -5 47 -3 48 3
51 2 33 -13 -20 -15 -20 -15 0 -30 25 -19 30 -19 89 4 42 17 50 23 48 44 -3
45 66 57 110 19 9 -8 17 -21 17 -28 0 -7 10 -16 23 -20 12 -3 31 -14 42 -22
11 -9 4 0 -14 21 -36 38 -32 45 16 25 41 -17 72 -48 66 -64 -3 -8 -1 -14 5
-14 5 0 13 7 16 16 5 13 9 14 21 4 8 -7 15 -21 15 -31 0 -11 7 -19 16 -19 8 0
24 -19 35 -45 11 -25 25 -45 32 -45 24 -1 85 -66 111 -117 14 -29 30 -53 35
-53 19 0 17 14 -5 53 -13 23 -27 50 -30 59 -3 9 -16 24 -28 32 -13 8 -35 40
-51 72 -23 46 -26 61 -16 75 6 10 11 27 10 36 0 13 -3 11 -10 -6 -7 -17 -13
-21 -20 -14 -8 8 -7 18 1 34 10 22 10 23 -4 5 -9 -10 -22 -16 -31 -13 -20 8
-19 24 3 30 16 4 16 5 0 6 -11 1 -18 9 -18 21 0 11 -4 20 -10 20 -5 0 -10 7
-10 15 0 8 -4 15 -10 15 -5 0 -10 -4 -10 -9 0 -6 5 -13 10 -16 16 -10 12 -55
-5 -62 -24 -9 -30 4 -15 32 10 20 11 28 2 37 -9 9 -12 7 -12 -9 0 -11 -7 -27
-16 -34 -15 -12 -16 -10 -10 19 5 21 4 32 -3 32 -6 0 -11 -7 -11 -15 0 -18
-14 -19 -41 -5 -28 15 -23 32 16 58 42 27 45 27 46 5 0 -13 3 -11 12 7 6 14
12 26 13 28 0 1 13 -2 27 -7 15 -6 27 -20 29 -33 4 -22 5 -22 12 -3 24 62 23
62 31 41 5 -10 4 -21 -1 -25 -18 -12 0 -61 22 -61 21 0 17 -40 -3 -41 -15 0
-15 -2 2 -8 12 -5 25 -3 33 6 7 7 20 13 28 13 8 0 14 6 14 13 0 19 -60 137
-70 137 -4 0 -10 9 -13 21 -5 17 -3 18 10 7 15 -12 15 -11 4 9 -6 13 -9 35 -6
50 6 28 6 28 -12 7 -18 -20 -18 -19 -17 50 1 39 2 76 4 81 1 6 2 13 1 18 0 4
4 7 10 7 6 0 8 -9 4 -20 -3 -11 -2 -28 4 -37 6 -10 11 -14 11 -9 0 5 9 1 20
-9 19 -17 18 -41 -1 -30 -15 10 -10 -2 7 -20 16 -15 83 -182 87 -215 1 -8 8
-21 15 -30 8 -8 38 -53 68 -100 29 -47 60 -94 68 -106 17 -24 26 -133 11 -134
-5 -1 -14 21 -20 47 -10 50 -30 93 -49 105 -24 16 -24 6 -1 -28 15 -22 27 -57
31 -95 5 -43 13 -66 32 -86 14 -16 28 -26 31 -23 3 3 7 -3 9 -13 2 -9 -4 -20
-12 -23 -9 -3 -16 -12 -16 -19 0 -7 -5 -15 -11 -17 -6 -2 -15 -27 -20 -56 -9
-46 -35 -98 -69 -139 -6 -7 -15 -24 -22 -38 -6 -14 -14 -25 -18 -25 -10 0 -10
89 1 96 5 3 9 13 9 23 0 9 9 27 20 39 11 12 20 35 20 51 0 17 6 34 14 38 20
12 26 64 11 87 -8 12 -14 35 -13 51 1 43 -23 144 -45 185 -15 29 -17 31 -14
10 4 -24 26 -117 49 -205 20 -79 21 -112 4 -118 -11 -5 -16 -1 -16 12 0 27
-10 51 -22 51 -7 0 -7 -4 0 -12 7 -9 5 -24 -8 -50 -10 -20 -16 -39 -13 -42 3
-2 2 -10 -3 -17 -5 -9 -11 -7 -21 7 -15 21 -64 27 -75 10 -14 -20 -8 -45 13
-57 15 -8 24 -8 32 0 6 6 15 11 19 11 13 0 9 -28 -4 -33 -10 -4 -10 -7 0 -15
20 -14 5 -58 -29 -84 -19 -15 -29 -32 -29 -50 0 -18 -11 -36 -37 -57 -21 -17
-41 -31 -45 -31 -13 0 -9 17 6 33 13 12 13 17 0 36 -16 22 -44 29 -44 11 0 -5
6 -10 14 -10 18 0 9 -81 -10 -92 -6 -5 -10 -17 -7 -28 3 -11 0 -20 -6 -20 -5
0 -8 7 -4 16 4 12 0 14 -21 8 -28 -7 -26 -11 -31 76 -1 17 -5 34 -9 37 -9 9
-26 -17 -25 -37 2 -28 -1 -40 -10 -40 -15 0 -6 76 13 105 17 26 17 27 -1 23
-10 -2 -18 -11 -18 -20 0 -10 -6 -23 -13 -30 -6 -6 -12 -22 -12 -33 0 -23 -22
-48 -52 -58 -10 -4 -18 -17 -18 -30 0 -23 -60 -89 -91 -100 -9 -3 -23 3 -33
15 -23 26 -36 13 -40 -38 -2 -21 -4 -41 -5 -43 -1 -2 -7 2 -15 8 -10 8 -16 9
-21 1 -3 -5 -3 -10 2 -10 4 0 -12 -10 -37 -22 -25 -12 -49 -20 -54 -19 -5 1
-29 -7 -53 -19 -43 -20 -63 -20 -63 2 0 6 9 8 20 5 10 -3 24 1 31 9 6 8 18 14
25 14 8 0 14 5 14 10 0 6 7 13 15 16 8 4 34 25 57 48 24 23 51 45 61 49 9 3
21 16 25 28 5 11 12 20 17 20 6 -1 10 5 10 12 0 6 9 12 19 12 14 0 20 9 22 35
3 25 1 31 -6 20 -7 -11 -12 -12 -20 -4 -8 8 -3 14 19 23 17 8 32 23 35 37 4
13 11 24 16 24 6 0 10 9 10 20 0 11 5 20 10 20 6 0 10 -5 10 -12 0 -6 3 -8 7
-5 3 4 -1 15 -11 26 -15 17 -15 19 -1 25 9 3 14 10 11 15 -4 5 -1 11 6 13 14
5 12 98 -3 112 -6 6 -9 3 -9 -8 0 -12 -5 -16 -15 -12 -9 3 -15 0 -15 -8 0 -8
4 -16 10 -18 11 -3 -27 -88 -41 -88 -4 0 -6 -6 -3 -14 10 -26 -81 -160 -103
-152 -10 4 -13 1 -8 -13 4 -13 -5 -25 -34 -44 -21 -14 -42 -23 -45 -20 -10 10
-7 43 4 43 6 0 10 6 10 13 0 6 -12 -1 -27 -18 -23 -26 -24 -30 -9 -33 21 -4
16 -26 -7 -30 -10 -2 -17 3 -17 13 0 9 -5 13 -10 10 -6 -4 -8 -15 -5 -26 8
-23 -17 -26 -35 -4 -15 18 -6 45 15 45 8 0 15 5 15 10 0 7 -7 7 -21 0 -28 -15
-38 -4 -13 15 16 12 16 14 3 15 -23 0 -41 -24 -28 -37 7 -7 6 -15 -5 -26 -14
-14 -14 -16 0 -21 27 -10 11 -40 -26 -49 -19 -5 -68 -11 -108 -13 -80 -3 -107
11 -97 50 6 20 5 20 -9 3 -18 -23 -42 -12 -71 32 -29 45 -39 38 -15 -9 12 -24
32 -45 47 -51 16 -6 23 -13 17 -19 -10 -10 -92 8 -129 28 -65 34 -229 103
-241 100 -21 -5 222 -123 294 -143 l63 -19 -7 -40 c-8 -50 -7 -49 -34 -41 -18
6 -21 12 -16 36 3 16 1 29 -4 29 -6 0 -10 -11 -10 -25 0 -19 -5 -25 -23 -25
-13 0 -28 5 -35 12 -7 7 -12 8 -12 2 0 -5 -5 -2 -10 6 -8 11 -12 12 -18 3 -8
-13 -27 -9 -89 17 -27 12 -31 18 -27 37 5 18 3 22 -10 17 -9 -3 -13 -10 -10
-15 3 -5 -2 -6 -10 -3 -33 13 -14 -12 27 -36 44 -26 146 -70 161 -70 5 0 14
-7 20 -16 8 -10 32 -18 67 -20 30 -2 62 -7 72 -10 11 -4 17 0 17 12 0 14 2 14
16 3 12 -10 17 -10 23 0 6 9 10 7 14 -8 3 -15 10 -19 22 -15 10 4 15 14 12 25
-3 11 -1 17 3 14 5 -3 10 1 13 7 3 10 7 10 20 -1 13 -10 14 -17 7 -26 -7 -8
-7 -15 -1 -19 11 -7 43 4 53 18 5 7 8 4 8 -6 0 -10 7 -18 15 -18 8 0 15 5 15
11 0 7 10 9 25 5 28 -7 85 20 85 39 0 13 28 13 48 1 7 -4 12 -1 12 8 0 9 9 16
20 16 11 0 20 4 20 9 0 5 8 8 18 7 10 0 16 5 15 14 -2 10 7 15 27 16 19 1 40
11 56 29 14 15 28 24 32 20 4 -3 -21 -34 -56 -67 -34 -33 -62 -62 -62 -64 0
-13 23 2 70 46 29 28 57 50 62 50 4 0 8 9 8 19 0 11 10 32 23 48 13 15 26 36
30 46 3 9 11 17 16 17 12 0 -50 -129 -91 -187 -16 -24 -45 -51 -64 -60 -19 -9
-34 -20 -34 -25 0 -14 16 -9 44 13 14 11 26 17 26 12 0 -4 -16 -19 -35 -33
-19 -14 -35 -30 -35 -35 0 -18 -72 -82 -117 -104 -52 -26 -53 -26 -53 -1 0 11
-5 20 -10 20 -6 0 -8 -11 -4 -27 l7 -28 -23 20 c-22 19 -22 19 -19 1 3 -13 -5
-24 -21 -33 -14 -7 -24 -19 -22 -28 2 -9 -8 -17 -25 -21 -15 -4 -34 -11 -41
-17 -9 -7 -16 -7 -24 1 -8 8 -1 13 23 19 19 5 34 16 34 24 0 8 -7 12 -15 10
-8 -2 -35 -7 -60 -11 -25 -5 -61 -13 -80 -18 -103 -30 -267 -22 -254 13 3 8
-4 16 -17 20 -12 4 -32 16 -43 27 -12 11 -37 28 -57 38 -20 10 -50 35 -68 55
-18 21 -35 34 -38 31 -9 -8 86 -98 127 -120 20 -11 30 -21 22 -23 -7 -3 -31 5
-54 17 -30 16 -38 17 -29 6 17 -20 9 -20 -54 0 -27 9 -64 16 -81 15 -21 -1
-34 4 -38 14 -3 9 -10 14 -15 11 -13 -8 -176 30 -261 61 -68 25 -88 28 -206
28 -129 0 -131 0 -174 30 -73 50 -120 76 -120 65 0 -16 -42 -12 -62 7 -10 9
-18 11 -18 6 0 -13 50 -47 58 -39 3 3 12 0 21 -8 9 -8 22 -16 30 -18 7 -2 24
-13 37 -25 13 -13 30 -23 38 -23 8 0 16 -3 18 -7 2 -5 20 -21 42 -37 29 -22
40 -26 46 -16 5 7 6 19 3 27 -10 27 190 22 249 -7 21 -10 71 -26 111 -35 142
-34 232 -58 244 -68 7 -5 23 -7 36 -3 26 6 144 -28 167 -49 8 -7 33 -17 55
-21 21 -4 64 -18 95 -32 70 -33 151 -38 168 -11 7 11 8 20 2 24 -6 3 -10 2
-10 -4 0 -11 -84 -10 -95 0 -3 4 22 10 57 13 42 5 64 4 66 -3 6 -17 52 -13 52
4 0 8 7 15 15 15 8 0 15 -4 15 -10 0 -15 61 -11 90 5 28 16 90 21 74 5 -14
-14 -134 -42 -156 -37 -14 4 -18 2 -14 -9 7 -18 -23 -37 -104 -69 -69 -27
-104 -31 -146 -15 -37 15 -193 31 -344 36 -159 6 -143 -12 19 -21 172 -9 211
-15 211 -31 0 -8 5 -14 10 -14 6 0 10 6 10 13 0 9 10 12 30 9 25 -3 28 -7 19
-18 -10 -12 0 -14 62 -13 41 1 111 -5 157 -11 46 -7 102 -10 125 -6 23 4 64
10 91 15 42 7 47 6 31 -5 -20 -15 -111 -36 -162 -37 -19 -1 -32 -6 -30 -11 2
-6 11 -10 21 -8 9 2 16 -2 16 -7 0 -16 -38 -23 -60 -11 -12 6 -28 9 -36 6 -8
-3 -14 1 -14 9 0 10 -11 15 -35 15 -19 0 -35 5 -35 10 0 6 -9 10 -20 10 -14 0
-20 -6 -18 -17 3 -20 -17 -22 -114 -10 -32 4 -83 10 -114 13 -46 5 -53 8 -43
20 11 13 6 18 -14 15 -4 -1 -16 3 -25 7 -28 15 -72 23 -72 14 0 -5 11 -15 25
-22 37 -20 25 -22 -46 -7 -39 8 -78 10 -99 5 -19 -4 -48 -5 -65 -3 -16 3 -52
7 -80 9 -53 4 -70 8 -175 33 -65 15 -221 84 -250 109 -13 11 -16 11 -17 -5 -2
-22 186 -116 262 -132 51 -10 201 -35 265 -44 19 -3 63 -11 97 -18 34 -8 64
-10 65 -7 5 12 78 22 78 11 0 -5 -8 -12 -17 -15 -10 -2 11 -4 47 -4 139 2 453
-26 475 -42 13 -10 127 -23 195 -22 30 0 61 -3 68 -7 8 -5 31 0 55 11 32 16
41 17 48 6 7 -11 11 -10 19 2 5 8 10 10 10 4 0 -16 50 -5 57 12 5 13 33 20 33
8 0 -3 -14 -20 -32 -37 -32 -32 -53 -39 -75 -24 -6 5 -20 4 -30 -1 -10 -5 -43
-13 -73 -16 -91 -11 -110 -17 -110 -32 0 -15 -11 -18 -115 -33 -174 -25 -245
-32 -276 -29 -24 2 -33 -1 -31 -10 3 -18 -118 -13 -125 5 -3 7 -18 13 -34 13
-15 0 -40 5 -54 12 -19 9 -28 9 -37 0 -7 -7 -20 -12 -30 -12 -10 0 -18 -4 -18
-9 0 -13 -37 -25 -80 -27 -37 -2 -205 -58 -226 -75 -7 -6 -15 -6 -18 -1 -3 5
-27 -1 -53 -13 -25 -13 -53 -21 -60 -18 -32 12 -202 -124 -217 -174 -7 -22 -5
-23 44 -23 47 0 52 2 71 35 11 19 29 37 40 40 10 4 19 11 19 17 0 6 3 8 7 5 3
-4 -4 -18 -17 -32 -13 -14 -19 -25 -14 -25 10 0 56 29 64 41 3 5 17 12 30 18
21 8 22 10 5 10 -14 1 -10 6 15 19 75 40 105 57 110 64 9 11 45 2 43 -11 -5
-20 15 -11 40 19 29 34 33 35 53 15 9 -8 26 -15 39 -15 26 0 46 -21 27 -28 -7
-2 -12 -8 -12 -14 0 -6 6 -6 15 2 12 10 17 5 31 -29 9 -23 19 -40 21 -37 7 7
-19 78 -39 105 -22 29 -23 41 -3 41 9 0 18 7 21 15 4 8 15 15 25 15 10 0 19 6
19 14 0 22 30 28 37 8 3 -9 13 -25 21 -35 23 -26 5 -34 -21 -8 -26 24 -46 21
-65 -10 -10 -16 -10 -22 2 -34 8 -8 17 -20 19 -27 4 -10 7 -10 14 -1 7 10 18
4 43 -22 26 -27 31 -38 22 -47 -8 -8 -15 -8 -27 2 -12 10 -15 10 -15 -5 0 -17
-1 -17 -21 1 -20 18 -20 18 -14 -8 7 -26 6 -27 -35 -24 -32 3 -48 10 -67 32
-26 30 -26 27 -3 -18 11 -24 20 -28 56 -28 29 0 44 -5 48 -16 8 -22 8 -24 -8
-24 -8 0 -18 -5 -21 -10 -4 -6 21 -10 69 -9 59 1 73 4 69 15 -7 18 15 18 51
-1 37 -20 36 -20 36 16 0 30 2 31 32 25 33 -7 58 -23 58 -38 0 -5 -9 -4 -20 2
-12 6 -20 7 -20 1 0 -5 -8 -12 -17 -14 -10 -3 41 -5 112 -6 107 0 127 2 113
12 -15 12 -21 67 -7 67 8 0 39 -35 39 -44 0 -15 29 -36 48 -36 16 0 19 5 15
22 -4 21 -3 22 10 6 18 -23 27 -23 27 -1 0 14 3 13 16 -5 12 -18 25 -22 70
-22 47 0 54 2 54 20 0 11 5 20 10 20 6 0 10 -9 10 -19 0 -17 8 -19 62 -18 34
0 72 6 85 12 23 12 22 13 -21 24 -46 11 -64 25 -46 36 6 4 4 15 -6 31 -13 19
-14 27 -4 39 17 20 60 20 60 -1 0 -8 14 -29 30 -46 16 -16 30 -34 30 -39 0 -5
6 -9 13 -9 7 -1 5 -6 -6 -14 -16 -13 -15 -15 14 -25 36 -12 193 -15 187 -3 -1
4 -16 31 -32 60 -22 40 -34 51 -47 47 -12 -4 -23 3 -36 25 -21 37 -142 104
-203 114 -39 6 -40 5 -40 -21 0 -28 -41 -83 -62 -83 -6 0 -1 8 10 19 12 10 22
23 22 29 0 14 -34 25 -38 13 -6 -17 -22 -13 -22 5 0 13 8 15 40 12 47 -4 51 6
10 27 -45 23 -85 19 -104 -10 -21 -32 -39 -32 -60 0 -18 27 -8 32 24 13 25
-16 33 -7 21 23 -5 13 -10 19 -10 12 -1 -8 -10 -7 -32 4 -26 13 -35 13 -55 3
-19 -11 -29 -11 -50 -1 -15 6 -25 14 -22 16 2 3 40 7 83 9 64 3 84 0 112 -16
25 -15 39 -18 60 -11 19 7 36 5 58 -6 25 -13 87 -20 180 -22 46 -1 83 7 109
24 32 21 61 17 96 -13 40 -35 74 -20 42 19 -32 40 -198 62 -218 30 -3 -5 -16
-9 -30 -9 -14 0 -23 -3 -21 -7 3 -5 -21 -9 -53 -11 -42 -2 -70 3 -109 20 -28
13 -51 26 -51 29 0 12 69 20 120 13 30 -4 60 -2 73 4 34 16 106 42 117 42 6 0
10 -7 10 -15 0 -19 19 -20 26 0 3 8 15 17 25 20 17 6 18 9 8 22 -9 10 -23 13
-48 9 -34 -6 -35 -5 -17 9 11 8 23 15 28 15 4 0 8 7 8 15 0 14 11 19 38 16 7
-1 15 5 18 14 4 11 13 13 28 9 19 -6 19 -5 7 10 -12 14 -12 16 2 10 8 -3 24
-1 35 5 15 8 21 8 24 -1 3 -8 14 -6 34 8 52 37 57 39 45 16 -6 -11 -30 -29
-55 -40 -24 -12 -47 -26 -51 -32 -4 -6 -15 -8 -26 -5 -28 9 -71 -33 -58 -57 7
-13 4 -20 -11 -28 -23 -13 -27 -40 -5 -40 17 0 56 20 68 35 4 6 11 3 18 -7 14
-26 59 -24 59 2 0 11 7 20 16 20 8 0 13 4 10 9 -4 5 3 7 14 4 11 -3 20 0 20 6
0 6 10 10 23 8 16 -1 21 3 19 16 -3 15 1 17 17 12 14 -4 31 5 62 35 55 52 72
53 63 3 -4 -21 -11 -41 -17 -44 -5 -4 -7 -11 -4 -16 7 -11 -14 -73 -24 -73 -4
0 -5 -8 -2 -18 3 -14 -33 -150 -93 -344 -5 -17 8 -18 183 -17 103 0 181 3 173
6 -8 4 -28 16 -45 28 -16 13 -40 26 -52 30 -13 3 -23 11 -23 16 0 5 -9 9 -20
9 -11 0 -20 7 -20 16 0 19 26 12 85 -21 22 -12 66 -37 99 -55 l58 -32 172 4
c164 3 173 5 195 27 14 14 30 21 43 18 11 -3 18 -3 15 0 -9 9 34 83 49 83 7 0
11 6 9 12 -6 18 95 79 117 72 12 -4 18 0 18 11 0 9 16 22 38 31 90 37 182 88
190 107 2 4 10 7 17 7 7 0 15 7 19 15 11 29 25 15 32 -32 4 -29 3 -53 -4 -64
-8 -12 -8 -20 -2 -24 12 -7 5 -184 -8 -197 -5 -5 -16 -6 -25 -2 -23 8 -22 51
2 97 l19 36 -24 16 c-13 8 -27 15 -31 15 -5 0 -14 9 -21 21 -9 15 -21 19 -44
17 -25 -2 -31 -8 -34 -30 -2 -20 1 -25 12 -21 8 3 14 1 14 -5 0 -15 -28 -23
-56 -16 -18 5 -23 3 -19 -8 3 -8 -6 -24 -21 -37 l-26 -22 -20 23 c-14 15 -19
17 -15 6 7 -20 -22 -60 -29 -41 -4 9 -16 5 -42 -12 -20 -14 -43 -25 -50 -25
-7 0 -12 -8 -11 -17 3 -34 -1 -43 -21 -43 -32 0 -23 -15 10 -17 27 -2 30 1 30
27 0 34 5 37 27 15 12 -12 13 -19 3 -30 -11 -13 -7 -15 26 -15 38 0 40 3 67
60 31 65 33 68 77 80 34 10 55 -6 39 -30 -8 -13 -11 -13 -20 3 -17 28 -35 20
-49 -24 -8 -24 -22 -44 -32 -47 -10 -2 -18 -13 -18 -24 0 -18 7 -19 103 -17
56 1 105 6 108 11 3 5 18 4 33 -2 15 -5 78 -10 141 -10 l114 0 4 33 3 32 8
-32 9 -33 126 0 c125 1 126 1 104 19 -13 11 -23 22 -23 26 0 9 -102 105 -111
105 -4 0 -12 13 -18 28 -7 16 -36 50 -66 77 -33 29 -55 57 -55 69 -1 33 -24
56 -58 56 -19 0 -40 9 -54 22 -13 13 -37 34 -53 48 -17 14 -45 42 -62 63 -24
28 -33 33 -33 20 0 -14 -6 -11 -25 12 -14 17 -30 38 -36 48 -10 17 -8 17 12 6
19 -10 25 -9 36 7 9 13 10 20 2 25 -7 4 -9 15 -5 24 4 12 0 18 -14 22 -12 3
-20 14 -20 28 0 36 -43 75 -84 75 -19 0 -38 5 -41 10 -15 24 -26 8 -19 -27 l7
-38 -27 24 c-14 14 -26 32 -26 42 0 9 -9 19 -20 22 -26 7 -25 35 2 64 25 27
13 30 -22 6 -13 -9 -25 -13 -27 -7 -6 16 -27 50 -78 124 -27 40 -54 80 -60 88
-5 9 -18 25 -28 36 -9 11 -42 57 -73 103 -31 46 -60 83 -64 83 -5 0 -34 35
-66 78 -32 42 -62 79 -66 80 -5 2 -15 17 -24 34 -20 38 -4 91 39 130 24 23 26
29 13 34 -9 3 -16 15 -16 25 0 11 -4 27 -9 37 -8 16 -15 31 -43 100 -7 17 -16
32 -20 32 -4 0 -10 15 -14 34 -4 24 -10 33 -20 29 -25 -9 -64 50 -64 98 0 16
-29 68 -50 89 -3 3 -25 29 -50 59 -41 50 -45 61 -51 128 -7 73 -55 199 -85
224 -8 6 -14 20 -14 29 0 16 8 18 53 15 70 -3 155 -29 199 -59 20 -13 82 -35
141 -49 l106 -25 59 18 c33 10 90 20 128 21 38 2 71 6 74 11 9 12 255 58 311
57 37 0 68 -8 99 -24 25 -13 55 -28 67 -34 12 -6 26 -19 32 -29 14 -26 64 -82
73 -82 5 0 8 9 8 20 0 13 5 18 15 14 19 -8 19 3 0 56 -8 24 -13 51 -10 61 3 9
-8 40 -26 70 -39 67 -64 151 -73 251 -4 43 -12 80 -17 84 -19 11 -27 -7 -18
-43 5 -21 13 -71 18 -110 5 -40 19 -91 30 -114 34 -65 61 -139 70 -191 l8 -46
-23 15 c-12 8 -29 24 -37 36 -24 38 -137 100 -179 100 -21 0 -35 3 -33 8 3 4
-4 13 -16 19 -30 16 -83 4 -154 -34 -78 -43 -109 -50 -126 -30 -12 14 -14 14
-20 -3 -5 -14 -26 -24 -79 -35 -40 -9 -79 -14 -86 -11 -8 3 -14 0 -14 -6 0
-17 -50 -13 -56 4 -8 21 -22 19 -20 -2 1 -14 -5 -17 -24 -15 -14 2 -29 11 -33
19 -6 10 -12 11 -21 4 -16 -13 -145 24 -163 46 -6 8 -16 12 -22 9 -5 -4 -25 2
-45 13 -19 11 -61 24 -93 28 -33 5 -58 13 -58 20 0 14 -44 57 -51 51 -2 -3 5
-17 17 -31 l20 -27 -28 0 c-21 0 -33 8 -46 30 -12 20 -26 30 -42 30 -29 0 -32
5 -51 77 -8 32 -23 74 -34 94 l-20 36 39 -1 c24 0 44 6 56 17 14 15 20 16 27
5 6 -9 7 -5 3 10 -6 21 -4 23 15 17 19 -6 21 -4 16 13 -4 11 -2 23 4 27 5 3
10 2 10 -3 0 -5 23 -40 50 -77 28 -37 50 -61 50 -53 0 8 -15 32 -33 54 -41 48
-57 76 -57 103 0 30 10 26 61 -21 25 -24 70 -65 100 -93 l54 -50 -49 55 c-28
30 -73 76 -100 102 -33 30 -47 50 -40 55 28 20 68 143 46 143 -14 0 -22 36
-10 48 6 6 4 19 -7 36 -16 24 -16 26 -1 32 11 4 25 -3 41 -22 26 -31 67 -46
43 -16 -7 9 -22 24 -32 33 -22 18 -13 42 12 37 10 -2 22 3 28 11 10 13 16 11
43 -18 17 -19 34 -31 38 -27 4 3 -4 17 -17 31 -13 14 -21 28 -17 31 8 9 66
-28 72 -46 3 -8 20 -31 37 -50 l31 -35 -28 50 c-16 27 -37 58 -46 69 -20 21
-15 41 7 32 12 -4 11 0 -2 25 -24 47 -12 44 35 -7 49 -52 67 -52 27 0 -30 40
-32 48 -10 39 9 -3 20 0 24 8 6 9 12 5 21 -17 15 -34 69 -100 69 -84 0 20 -82
154 -111 184 -16 15 -29 35 -29 43 0 22 34 -1 71 -49 46 -60 55 -68 33 -29
-10 18 -29 43 -41 55 -29 27 -29 36 1 36 28 0 34 -7 66 -78 17 -39 21 -55 12
-61 -7 -4 -9 -16 -4 -31 8 -29 54 -100 64 -100 13 0 19 40 8 57 -10 16 -10 15
-5 -4 9 -32 -10 -29 -34 6 -33 46 -26 68 11 34 17 -15 18 -15 18 0 0 21 19 22
26 2 4 -8 9 -13 14 -10 4 2 18 -7 30 -20 28 -29 62 -36 39 -8 -13 15 -11 15
13 -1 15 -10 34 -28 42 -41 9 -13 24 -26 35 -30 11 -3 24 -19 29 -35 14 -38
46 -54 110 -55 60 0 81 -18 101 -87 7 -21 16 -36 20 -33 11 6 64 -102 56 -115
-3 -5 11 -38 31 -73 47 -77 43 -71 49 -66 2 3 -5 22 -16 43 -11 21 -31 76 -44
121 -14 46 -40 116 -59 157 -29 61 -43 79 -83 105 -27 18 -68 35 -91 39 -26 4
-54 18 -79 41 -20 19 -58 46 -83 60 -66 38 -115 88 -171 176 -27 42 -55 78
-62 78 -48 5 -69 3 -81 -9z m-111 -152 c11 -16 23 -30 28 -30 4 0 7 -5 7 -10
0 -6 -13 -4 -30 5 -38 20 -40 19 -40 -10 0 -22 3 -25 25 -19 32 8 32 -6 0 -29
-27 -19 -50 -14 -41 9 8 20 -17 17 -47 -6 -14 -11 -32 -18 -40 -14 -16 6 -65
-36 -89 -76 -23 -37 -29 -83 -14 -111 11 -21 10 -31 -5 -67 -20 -45 -57 -64
-84 -42 -22 18 -27 8 -15 -25 11 -28 5 -48 -8 -30 -4 6 -16 17 -27 25 -19 14
-20 14 -2 -6 9 -11 17 -26 17 -32 0 -24 -17 -11 -36 25 -10 21 -25 44 -31 51
-15 16 -17 51 -4 71 7 11 12 7 25 -15 8 -16 15 -24 16 -19 0 6 -8 24 -18 40
-11 18 -16 38 -12 50 4 11 10 30 15 43 4 12 11 22 16 22 5 0 9 7 9 15 0 8 5
15 10 15 6 0 10 8 10 18 1 29 36 -21 60 -86 11 -31 25 -66 30 -77 26 -50 -2
51 -30 111 -16 36 -30 68 -30 70 0 7 21 33 54 64 50 49 66 61 76 55 6 -4 10
-1 10 5 0 7 6 10 14 7 7 -3 18 -1 23 4 7 7 15 5 25 -4 13 -13 16 -13 27 5 8
13 18 17 31 13 12 -4 20 -2 20 4 0 22 36 10 55 -19z m109 -1674 c2 -14 1 -28
-3 -31 -5 -2 -5 -24 -1 -47 5 -23 6 -58 4 -78 -4 -32 -3 -33 6 -11 7 16 14 21
21 14 6 -6 3 -25 -10 -56 -13 -31 -16 -47 -9 -49 8 -3 4 -20 -11 -50 -12 -25
-20 -50 -19 -54 3 -9 -5 -14 -23 -14 -6 0 -8 9 -4 20 3 11 4 20 0 20 -15 0
-48 -41 -50 -63 -4 -30 -29 -79 -49 -96 -9 -8 -16 -18 -16 -24 0 -14 55 43 63
66 3 9 11 17 16 17 16 0 -65 -123 -100 -150 -17 -14 -45 -37 -62 -52 -38 -33
-85 -54 -95 -43 -4 4 -1 10 6 12 6 3 12 9 12 14 0 6 -10 3 -22 -6 -13 -8 -23
-21 -23 -28 0 -16 -54 -10 -72 9 -16 16 -9 34 13 34 8 0 12 -4 9 -10 -3 -5 -2
-10 4 -10 14 0 23 18 10 22 -24 8 9 56 47 68 21 7 47 21 58 31 11 11 24 19 29
19 4 0 20 14 34 31 14 16 31 28 38 25 7 -2 17 6 24 20 11 25 31 33 31 13 0 -8
5 -8 15 1 19 16 19 28 1 32 -11 2 -7 14 15 47 22 31 29 51 25 67 -5 18 -2 24
10 24 13 0 14 3 4 15 -16 19 -34 19 -26 0 3 -8 -6 -27 -19 -41 -14 -15 -25
-31 -25 -36 0 -5 -4 -7 -8 -4 -5 3 -16 -10 -25 -28 -8 -19 -29 -41 -46 -49
-30 -15 -32 -14 -43 6 -6 12 -15 25 -21 28 -6 4 -5 9 1 13 6 3 14 -3 17 -14 9
-27 27 -21 36 12 7 26 49 76 49 59 0 -5 -7 -17 -16 -26 -9 -9 -14 -18 -12 -21
3 -2 21 12 42 32 27 26 35 41 30 56 -3 12 1 27 11 37 8 10 15 23 13 27 -2 5 7
20 20 34 17 18 22 20 22 8 0 -9 -5 -18 -11 -20 -14 -5 -1 -35 17 -42 12 -4 14
-1 9 14 -3 11 1 47 10 81 12 50 13 65 3 77 -11 13 -10 15 4 9 23 -8 27 18 11
73 -7 25 -13 50 -12 55 0 17 38 -60 43 -89z m-471 -558 c-3 -18 -12 -45 -20
-60 -7 -15 -13 -31 -12 -35 1 -4 0 -12 -1 -18 -1 -5 -3 -14 -5 -20 -1 -5 -3
-18 -3 -28 -2 -15 -9 -18 -39 -15 -22 2 -38 -2 -41 -10 -2 -6 3 -12 12 -12 9
0 16 -5 16 -11 0 -7 -11 -8 -31 -4 -28 6 -30 5 -20 -13 8 -16 6 -24 -14 -42
-14 -13 -23 -25 -21 -27 7 -7 56 20 56 31 0 6 7 3 16 -6 18 -18 10 -42 -12
-34 -8 3 -14 -1 -14 -11 0 -9 -20 -39 -44 -68 -31 -36 -57 -55 -88 -65 -24 -8
-58 -27 -77 -43 -99 -84 -201 -124 -193 -74 2 9 -2 17 -8 17 -5 0 -10 -9 -10
-20 0 -11 -4 -20 -10 -20 -5 0 -10 4 -10 10 0 6 -9 6 -26 0 -36 -14 -54 -12
-54 5 0 17 -16 20 -25 5 -10 -16 -55 -12 -55 5 0 8 6 15 13 15 7 0 18 5 25 12
13 13 89 37 134 43 15 1 48 14 72 28 26 15 54 23 66 20 11 -3 27 1 36 8 12 10
17 10 23 0 6 -9 14 -6 32 9 l24 21 -33 -5 c-20 -4 -31 -2 -27 4 3 6 12 10 19
10 7 0 25 14 41 30 16 17 36 29 45 28 24 -4 39 10 33 32 -3 12 1 28 10 38 9 9
35 38 58 65 23 26 50 47 60 47 20 0 26 15 9 25 -15 9 76 165 96 165 2 0 1 -15
-3 -32z m312 -105 c-2 -16 -4 -34 -4 -42 -1 -8 -18 -31 -40 -51 -41 -39 -65
-86 -40 -78 8 3 14 10 14 16 0 5 4 14 9 19 5 5 6 3 2 -4 -4 -7 -4 -13 1 -13 4
0 23 21 41 47 39 57 43 38 5 -23 -21 -32 -36 -45 -60 -50 -18 -3 -33 -11 -33
-18 0 -6 -9 -19 -20 -29 -11 -9 -17 -23 -14 -31 6 -15 -12 -56 -24 -56 -4 0
-7 20 -7 44 0 31 -3 42 -12 39 -7 -3 -13 1 -13 9 0 20 38 40 63 32 12 -3 19
-3 14 1 -4 5 0 17 10 27 24 27 7 35 -20 10 -13 -12 -32 -22 -44 -22 -11 0 -28
-9 -39 -21 -10 -11 -28 -25 -39 -31 -14 -6 -12 -2 8 16 15 14 27 30 27 35 0 6
11 13 25 17 13 3 29 12 36 20 6 8 20 14 31 14 28 0 122 99 109 114 -7 9 -7 16
1 24 16 16 17 16 13 -15z m-259 -266 c-5 -21 -2 -23 25 -21 19 1 29 -2 26 -9
-2 -7 -16 -11 -31 -10 -14 1 -26 -1 -27 -5 0 -4 -2 -17 -5 -30 -2 -14 0 -21 6
-17 5 3 10 3 9 -2 -1 -12 -129 -122 -162 -139 -23 -13 -26 -13 -21 1 4 8 2 15
-4 15 -6 0 -19 3 -29 6 -13 4 -14 3 -5 -3 15 -11 0 -63 -18 -63 -6 0 -8 5 -5
10 3 6 2 10 -4 10 -5 0 -11 -4 -13 -8 -6 -15 -99 -64 -113 -59 -7 3 -39 -5
-71 -18 -82 -34 -96 -31 -49 10 22 19 45 33 51 31 6 -2 17 0 25 5 12 7 12 9 0
9 -12 0 -12 3 -3 12 53 53 -63 -19 -128 -80 -25 -23 -50 -29 -50 -12 0 5 8 14
18 19 16 10 16 10 0 11 -9 0 -20 -5 -23 -10 -7 -11 -68 -4 -95 10 -11 6 -7 10
15 15 17 3 63 18 103 31 41 14 76 23 79 20 6 -6 -59 -41 -70 -38 -5 1 -6 -2
-2 -8 10 -17 22 -12 86 35 41 30 68 43 80 40 11 -4 43 10 86 37 37 24 82 51
98 60 76 42 73 42 89 25 23 -23 20 -32 -16 -56 -18 -11 -27 -21 -20 -21 7 0
10 -6 7 -12 -4 -7 10 6 30 30 20 23 45 42 54 42 21 0 58 37 47 47 -3 4 -16 -4
-29 -17 -19 -21 -22 -22 -25 -7 -2 10 -11 16 -24 14 -11 -1 -23 4 -26 12 -3 9
1 11 16 7 11 -4 23 -2 27 4 4 6 18 15 32 21 13 5 21 14 18 20 -4 6 3 21 16 35
28 30 33 30 25 1z m909 -427 c6 -10 -95 -60 -121 -60 -8 0 -23 -9 -34 -20 -11
-11 -26 -20 -34 -20 -7 0 -34 -11 -60 -25 -26 -14 -51 -23 -55 -21 -4 3 -34
-20 -66 -51 -69 -66 -196 -135 -195 -105 0 4 17 15 38 24 20 10 53 32 72 49
66 57 99 81 108 75 6 -3 15 1 22 9 7 8 17 15 22 15 5 0 22 10 37 21 16 12 34
18 40 15 6 -4 11 -3 11 1 0 5 21 20 47 34 25 13 65 34 87 46 45 24 72 28 81
13z"/>
<path d="M4054 3420 c4 -14 10 -62 13 -107 6 -85 14 -99 33 -62 7 11 14 19 17
16 7 -8 -46 -87 -60 -88 -6 0 -31 -2 -55 -4 -24 -2 -55 -6 -68 -9 -23 -6 -24
-5 -14 14 14 26 -3 27 -30 0 -21 -21 -50 -27 -50 -11 0 5 5 11 12 13 9 3 9 6
0 12 -7 4 -12 4 -12 -1 0 -4 -28 -7 -62 -6 -50 2 -66 6 -80 23 -9 11 -32 26
-50 32 -18 6 -47 22 -65 35 -17 13 -37 23 -45 22 -7 -1 -30 1 -51 6 -23 4 -69
3 -114 -5 -73 -11 -76 -11 -101 12 l-26 23 17 -27 c9 -15 13 -29 8 -32 -5 -3
-11 -18 -13 -33 -3 -16 -8 -37 -12 -48 -8 -20 -7 -20 8 -1 9 11 16 28 16 38 0
10 7 18 16 18 9 0 22 6 28 14 14 18 86 33 86 17 0 -15 -36 -32 -54 -25 -24 9
-43 -46 -22 -62 21 -15 20 -24 -2 -24 -14 0 -18 -10 -20 -58 -3 -59 -3 -59 47
-110 28 -28 48 -57 46 -64 -4 -10 7 -12 42 -9 44 3 46 2 33 -14 -7 -9 -22 -14
-32 -12 -13 4 -18 0 -18 -15 0 -15 4 -18 22 -12 13 4 34 15 48 25 19 14 35 17
68 12 23 -3 42 -9 42 -13 0 -13 -36 -40 -86 -65 -36 -18 -43 -24 -26 -24 29
-1 28 -12 -5 -51 -24 -29 -28 -31 -34 -14 -6 17 -8 15 -19 -11 -6 -16 -19 -39
-29 -50 -24 -28 -53 -95 -41 -95 6 0 10 5 10 10 0 11 1 12 95 119 65 72 128
125 139 114 6 -6 85 54 104 80 8 9 19 17 25 15 37 -7 63 18 73 70 5 27 43 82
56 82 5 0 7 4 4 9 -7 10 32 47 40 38 4 -4 1 -13 -6 -22 -10 -12 -10 -15 5 -15
14 0 10 -9 -18 -43 -20 -24 -39 -55 -42 -70 -4 -14 -17 -35 -30 -47 -13 -12
-22 -27 -19 -34 2 -6 -7 -27 -20 -45 -14 -19 -23 -38 -20 -43 3 -5 -1 -20 -10
-33 -10 -14 -12 -26 -6 -30 11 -7 -7 -38 -57 -101 -32 -39 -41 -64 -25 -64 11
0 68 59 114 120 68 88 73 89 82 13 5 -41 15 -67 33 -88 17 -20 23 -24 18 -10
-4 11 -14 36 -21 55 -16 42 -18 70 -4 70 6 0 10 -8 10 -19 0 -36 58 -146 89
-169 37 -27 39 -17 8 29 -32 48 -80 163 -75 184 7 41 25 24 32 -30 6 -51 40
-125 59 -125 9 0 9 -2 -4 40 -21 68 -20 126 1 145 25 22 27 57 4 48 -13 -5
-15 -2 -9 16 3 12 8 41 9 66 4 55 47 117 125 180 l25 20 -15 -21 c-8 -11 -34
-46 -59 -77 -30 -39 -45 -67 -46 -89 0 -18 -4 -44 -8 -57 -6 -15 -5 -21 2 -17
6 4 14 28 18 54 5 37 19 62 62 115 37 44 63 67 77 67 26 0 63 25 53 36 -5 4
-16 0 -26 -9 -10 -10 -22 -14 -25 -10 -9 8 22 43 38 43 7 0 24 11 39 25 15 14
32 25 38 25 20 0 78 50 94 82 16 30 15 32 -7 48 -27 21 -69 23 -69 3 0 -10 6
-12 20 -8 11 3 20 2 20 -4 0 -22 -13 -41 -29 -41 -10 0 -30 -13 -46 -30 -16
-16 -32 -30 -35 -30 -4 0 -4 38 -2 85 3 47 1 85 -4 85 -5 0 -7 -22 -6 -49 2
-27 -1 -58 -7 -68 -8 -15 -10 -10 -11 24 0 32 -5 45 -20 53 -11 6 -20 17 -20
25 0 8 -10 19 -21 26 -21 11 -21 9 -15 -25 5 -24 3 -36 -4 -36 -6 0 -16 -13
-21 -30 -6 -16 -14 -30 -18 -30 -3 0 -12 30 -19 68 -7 37 -18 72 -24 77 -8 7
-9 3 -4 -15z"/>
<path d="M1216 3215 c-18 -14 -18 -16 -3 -33 9 -10 17 -24 17 -30 0 -7 4 -12
8 -12 4 0 15 -12 25 -27 9 -16 32 -45 52 -67 19 -21 35 -44 35 -52 0 -8 13
-35 29 -61 35 -59 45 -89 31 -98 -15 -9 -12 -25 5 -25 16 0 35 -30 35 -54 0
-9 7 -24 15 -33 8 -10 42 -49 75 -87 33 -37 68 -81 77 -96 9 -16 37 -39 62
-52 25 -13 55 -31 66 -42 11 -10 34 -25 52 -32 17 -8 38 -23 46 -34 9 -13 59
-36 128 -61 106 -38 119 -40 189 -35 85 6 209 39 222 58 4 7 8 10 8 5 0 -4 12
-1 28 7 34 18 139 130 216 230 39 52 67 78 85 82 14 3 45 9 68 15 23 5 56 9
72 9 29 0 30 -1 19 -25 -9 -19 -8 -29 6 -49 22 -34 22 -153 0 -184 -8 -12 -17
-30 -19 -40 -18 -75 -25 -96 -40 -119 -21 -31 -31 -144 -16 -171 8 -13 10 -5
11 36 0 39 4 52 15 52 8 0 19 17 26 43 17 65 37 97 100 164 59 62 68 77 49 88
-5 3 -10 22 -10 42 0 23 -13 60 -37 102 -23 41 -32 66 -25 69 7 2 12 8 12 14
0 11 -56 7 -188 -15 -60 -9 -78 -16 -95 -38 -12 -15 -44 -55 -72 -90 -91 -115
-125 -146 -193 -182 -60 -31 -96 -44 -157 -53 -11 -2 -38 -8 -60 -13 -116 -30
-228 1 -354 97 -79 61 -82 63 -123 82 -15 7 -39 30 -54 52 -15 21 -32 38 -39
38 -10 0 -58 62 -100 129 -5 9 -19 30 -31 46 -12 17 -25 41 -29 55 -8 27 -56
134 -83 188 -9 18 -25 40 -34 49 -10 9 -18 20 -18 25 0 5 -9 19 -21 31 -11 12
-18 29 -16 39 3 9 0 15 -7 13 -6 -3 -22 5 -35 16 -23 19 -23 20 -5 34 10 8 15
14 9 14 -5 0 -19 -6 -29 -14z"/>
<path d="M4405 2814 c-22 -8 -47 -22 -56 -32 -17 -19 -42 -118 -33 -133 11
-19 26 -7 45 36 21 48 35 56 46 28 14 -38 32 -46 58 -29 28 18 31 50 11 105
-15 42 -20 44 -71 25z"/>
<path d="M1185 2789 c-81 -42 -133 -80 -138 -100 -3 -11 -9 -19 -14 -18 -14 4
-58 -18 -72 -35 -7 -9 -19 -16 -27 -16 -7 0 -31 -18 -53 -40 -59 -60 -65 -56
-91 55 -17 70 -17 70 -53 73 -38 3 -47 1 -187 -43 -47 -15 -118 -35 -159 -44
-41 -9 -77 -23 -79 -31 -3 -9 1 -11 12 -7 21 8 237 -22 253 -35 7 -5 15 -36
19 -69 4 -37 11 -59 19 -59 22 0 27 -66 10 -116 -9 -26 -13 -49 -10 -52 3 -3
23 4 44 16 21 12 47 22 58 22 10 0 25 6 32 13 18 18 147 15 206 -6 28 -10 61
-26 74 -36 23 -18 25 -24 23 -110 -1 -53 2 -91 8 -91 21 0 32 86 27 203 -5
106 -8 121 -30 151 -27 35 -139 86 -145 67 -2 -6 -8 -11 -14 -11 -6 0 -6 6 2
15 10 12 9 16 -4 21 -9 3 -16 9 -16 13 0 9 57 42 67 39 4 -2 28 16 53 40 25
23 49 42 55 42 5 0 38 26 71 58 34 31 73 65 88 75 25 17 35 37 18 37 -4 0 -25
-9 -47 -21z"/>
<path d="M3175 2780 c-16 -16 -34 -30 -40 -30 -6 0 -21 -9 -33 -21 -12 -11
-26 -18 -31 -14 -16 9 -41 -6 -41 -26 0 -22 11 -24 28 -7 9 9 12 9 12 -3 0 -8
-5 -20 -12 -27 -9 -9 -9 -12 0 -12 7 0 15 7 18 15 8 19 37 19 76 -1 21 -11 33
-12 37 -5 4 6 23 14 41 17 l35 7 -27 -26 c-16 -14 -28 -33 -28 -41 0 -8 27 13
59 45 40 39 68 59 84 59 13 0 36 9 51 21 21 17 24 24 15 35 -9 11 -7 14 9 14
12 0 24 5 27 10 14 22 -35 8 -71 -21 -21 -17 -40 -26 -42 -20 -2 6 -15 2 -30
-9 -15 -11 -40 -21 -57 -23 -17 -2 -30 -10 -30 -18 0 -18 -71 -25 -91 -8 -8 6
-14 14 -14 18 0 7 66 38 95 44 17 4 16 5 -4 6 l-24 1 23 25 c17 18 19 25 9 25
-9 0 -28 -13 -44 -30z"/>
<path d="M3662 2722 c-18 -15 -32 -32 -32 -38 0 -6 -22 -41 -50 -78 -51 -68
-65 -100 -32 -75 13 11 12 8 -3 -11 -11 -14 -25 -28 -32 -33 -6 -4 -21 -23
-33 -42 -12 -19 -28 -35 -35 -35 -22 0 -83 -60 -143 -140 -31 -41 -62 -81 -69
-88 -16 -17 -17 -25 0 -17 6 4 4 0 -7 -9 -10 -8 -15 -19 -12 -24 3 -5 -1 -15
-9 -22 -8 -7 -29 -38 -47 -69 -44 -78 -69 -111 -85 -111 -7 0 -12 -8 -10 -18
3 -23 -132 -145 -151 -137 -10 4 -12 0 -8 -11 7 -17 -57 -124 -75 -124 -14 0
-11 7 26 66 34 52 34 54 9 37 -39 -25 -74 -87 -74 -131 0 -34 -29 -96 -30 -64
0 6 -5 12 -11 12 -6 0 -8 -9 -4 -20 4 -11 0 -34 -9 -50 -8 -17 -12 -30 -9 -30
3 0 32 20 65 45 59 45 74 51 133 58 26 3 25 4 -8 6 -21 0 -55 -8 -77 -19 -22
-11 -40 -16 -40 -10 0 19 29 80 38 80 4 0 29 28 54 63 65 87 157 187 174 187
7 0 20 13 28 29 8 15 37 50 63 77 52 54 113 148 113 175 0 10 8 24 18 31 10 7
38 47 62 88 47 80 62 100 79 100 17 0 159 151 178 190 10 19 37 61 60 92 23
31 36 55 28 51 -18 -6 -20 8 -3 25 24 24 2 19 -30 -6z"/>
<path d="M4805 2703 c-41 -10 -50 -35 -34 -94 11 -45 25 -51 76 -36 78 24 87
56 29 108 -32 29 -36 30 -71 22z"/>
<path d="M2500 2274 c-76 -57 -144 -100 -229 -145 -45 -23 -84 -46 -87 -51 -3
-4 -13 -8 -22 -8 -36 0 -152 -126 -137 -149 3 -6 1 -20 -5 -31 -9 -16 -15 -19
-25 -10 -10 8 -24 -5 -65 -61 -29 -39 -60 -74 -71 -76 -10 -3 -21 -13 -24 -23
-13 -40 -104 -130 -132 -130 -12 0 -25 -4 -28 -10 -3 -5 -12 -10 -18 -10 -15
1 43 51 102 91 25 16 51 43 58 60 12 29 12 30 -10 23 -51 -16 -69 -26 -176
-98 -63 -43 -136 -85 -169 -95 -101 -33 -246 -89 -287 -111 -22 -11 -60 -32
-84 -45 -24 -14 -50 -25 -58 -25 -7 0 -13 -7 -13 -15 0 -15 -29 -35 -50 -35
-7 0 -2 9 11 20 13 10 21 19 16 20 -9 0 -111 -56 -149 -82 -15 -11 -36 -21
-45 -23 -10 -2 -47 -16 -81 -30 -35 -15 -73 -28 -85 -31 -12 -2 -29 -13 -39
-24 -9 -11 -21 -20 -27 -20 -21 0 -161 -84 -158 -95 2 -5 16 -11 30 -13 31 -4
30 -3 18 -34 -9 -24 -83 -53 -116 -46 -13 2 -12 8 10 37 14 19 25 38 25 42 0
15 -95 16 -112 1 -29 -24 -66 -95 -70 -132 -2 -28 1 -36 22 -47 21 -11 27 -10
36 2 20 27 24 3 4 -25 -16 -23 -17 -29 -5 -41 19 -19 30 -69 16 -69 -6 0 -11
11 -11 25 0 38 -33 65 -80 65 -49 0 -51 -12 -5 -40 34 -21 34 -22 18 -46 -9
-15 -24 -24 -37 -23 -12 0 -25 1 -29 0 -12 -1 19 -31 32 -31 6 0 11 -7 11 -16
0 -10 6 -14 15 -10 16 6 19 -2 7 -20 -8 -13 -52 -25 -52 -15 0 4 6 13 12 19
10 10 10 15 -2 22 -19 12 -50 3 -73 -21 -10 -11 -27 -19 -37 -19 -11 0 -20 -4
-20 -10 0 -15 51 -24 70 -12 14 9 19 6 28 -12 7 -17 7 -27 0 -34 -8 -8 -7 -16
3 -28 13 -16 12 -17 -6 -10 -11 4 -32 10 -48 13 -22 5 -26 3 -21 -11 3 -9 1
-16 -5 -16 -6 0 -11 -6 -11 -14 0 -7 -7 -19 -15 -26 -21 -17 -19 -40 4 -40 18
0 35 25 27 39 -6 9 82 33 95 26 5 -4 9 -12 9 -18 0 -7 9 -18 20 -25 11 -7 20
-19 20 -26 0 -8 9 -35 20 -60 17 -40 18 -49 6 -73 -54 -109 -57 -124 -34 -199
11 -38 24 -73 29 -78 18 -19 20 4 5 62 -19 70 -20 85 -6 77 6 -3 10 -16 10
-28 0 -17 2 -19 9 -8 8 12 13 12 35 -3 14 -9 26 -21 26 -26 0 -6 11 -15 25
-20 24 -9 35 -30 15 -30 -5 0 -10 -4 -10 -10 0 -5 6 -7 14 -4 8 3 17 1 21 -5
4 -7 78 -11 217 -11 l211 0 -7 60 c-4 33 -5 60 -2 60 3 0 10 -27 17 -59 l11
-60 238 -1 c183 0 240 3 244 12 5 10 7 10 12 1 9 -20 228 -18 244 2 12 14 15
14 30 0 9 -8 31 -15 48 -15 30 0 32 2 32 35 0 19 5 35 10 35 6 0 10 -16 10
-35 l0 -35 187 0 187 0 -50 31 c-27 18 -67 37 -89 43 -52 15 -61 45 -13 43 66
-2 153 14 180 33 27 20 43 15 29 -9 -10 -15 -81 -33 -129 -33 -18 0 -32 -3
-30 -8 2 -5 34 -29 73 -54 l69 -46 403 0 c222 0 403 2 403 4 0 3 -14 20 -31
38 -17 18 -36 47 -44 65 -7 17 -42 58 -77 92 -135 129 -167 175 -218 310 -31
80 -25 80 84 2 38 -28 73 -48 78 -45 13 8 9 24 -6 24 -8 0 -22 10 -30 21 -12
18 -126 114 -161 137 -6 4 -21 24 -33 45 -18 32 -20 41 -9 60 6 12 13 24 14
26 5 10 69 -48 103 -94 35 -48 51 -59 192 -128 84 -41 171 -80 193 -86 22 -6
69 -27 105 -47 36 -20 83 -46 105 -57 22 -11 53 -31 68 -44 16 -13 35 -23 42
-23 8 0 40 -11 71 -25 31 -14 60 -22 65 -19 14 8 11 24 -5 24 -18 0 -197 92
-240 123 -17 12 -38 27 -47 32 -38 23 -128 96 -136 109 -5 9 -13 12 -21 7 -8
-5 2 -18 33 -41 25 -19 45 -35 45 -37 0 -11 -33 1 -58 22 -17 14 -37 23 -45
19 -19 -7 -156 56 -205 94 -20 16 -42 27 -49 25 -22 -8 -73 27 -98 67 -13 21
-39 50 -57 64 -55 42 -121 90 -151 109 -16 10 -35 34 -43 52 -7 19 -18 36 -23
39 -4 3 -27 36 -49 73 -22 38 -59 88 -82 113 -37 40 -51 64 -80 135 -5 11 -20
47 -35 80 -47 106 -57 150 -44 197 6 24 15 48 19 53 4 6 16 37 26 70 21 72 34
90 34 48 0 -17 6 -33 13 -36 9 -3 12 4 9 29 -6 49 16 164 38 202 11 17 16 32
12 32 -17 0 -59 -60 -71 -101 -7 -24 -21 -60 -31 -79 -10 -19 -24 -59 -30 -88
-7 -28 -17 -55 -23 -59 -16 -10 -1 80 22 127 10 21 24 63 31 92 7 29 19 58 27
65 11 8 14 22 10 43 -8 37 21 76 64 85 16 4 32 11 35 17 4 5 38 25 76 43 39
19 78 40 87 48 9 7 36 25 61 40 52 30 137 103 130 110 -3 3 -25 -10 -50 -29z
m-948 -771 c-16 -16 -47 -56 -70 -91 -38 -60 -41 -62 -54 -43 -14 20 -16 19
-55 -22 -23 -23 -48 -56 -57 -74 -18 -35 -65 -72 -83 -66 -7 3 -13 13 -13 24
0 22 -11 24 -28 7 -6 -6 -15 -9 -18 -5 -4 4 9 24 29 46 19 21 38 49 42 62 13
49 30 70 77 99 26 16 48 25 48 20 0 -5 -9 -15 -21 -22 -11 -7 -30 -29 -40 -48
-11 -19 -31 -53 -44 -75 -28 -46 -31 -65 -10 -65 8 0 15 4 15 10 0 17 218 232
229 226 5 -4 18 5 28 18 10 14 26 26 36 26 15 0 13 -5 -11 -27z m203 0 c-4
-10 -10 -28 -12 -41 -3 -12 -9 -25 -14 -28 -5 -3 -9 -12 -9 -21 0 -9 -9 -26
-19 -37 -30 -33 -106 -171 -115 -211 -10 -38 -82 -173 -111 -207 -19 -23 -35
-47 -35 -53 0 -7 -9 -20 -20 -30 -11 -10 -20 -23 -20 -28 0 -14 -78 -97 -122
-130 -21 -16 -38 -35 -38 -42 0 -15 -50 -58 -58 -50 -3 3 0 11 6 17 7 7 12 18
12 26 0 16 74 92 90 92 6 0 10 4 10 10 0 5 12 24 28 42 15 18 32 40 37 50 6 9
36 52 68 97 52 73 122 205 142 271 8 26 114 215 147 263 22 30 44 37 33 10z
m-744 -413 c-5 -19 -12 -43 -16 -54 -7 -16 -6 -17 14 -6 13 6 25 9 28 6 10 -9
-8 -26 -50 -47 -23 -12 -57 -35 -76 -53 -30 -28 -33 -29 -27 -9 7 21 5 22 -26
17 -18 -3 -45 -14 -60 -25 -23 -16 -28 -16 -38 -4 -10 12 -8 22 13 53 35 50
62 110 54 118 -3 4 -27 0 -52 -8 -25 -9 -45 -11 -45 -7 0 13 54 38 99 45 34 5
41 4 41 -10 0 -22 -34 -89 -54 -105 -9 -8 -16 -20 -16 -29 0 -12 9 -14 50 -9
59 7 100 31 93 55 -2 11 10 33 31 56 20 20 36 42 36 48 0 6 2 9 4 7 3 -3 1
-20 -3 -39z m489 -300 c22 -11 46 -20 54 -20 8 0 32 -11 52 -25 20 -14 43 -25
50 -25 7 0 38 -20 68 -45 31 -25 62 -45 69 -45 8 0 34 -19 58 -43 44 -42 131
-107 144 -107 4 0 27 -18 52 -40 25 -22 50 -40 55 -40 5 0 6 -4 3 -10 -10 -16
-20 -12 -73 30 -27 22 -53 40 -57 40 -14 0 -165 132 -165 145 0 8 -7 11 -21 8
-14 -4 -31 5 -57 30 -37 35 -106 77 -128 77 -6 0 -22 8 -35 19 -13 10 -40 21
-60 25 -20 3 -44 15 -54 26 -23 26 -6 26 45 0z m-132 -242 c2 -52 8 -94 16
-107 7 -11 3 -13 -25 -9 -35 6 -59 1 -59 -11 0 -3 18 -6 39 -6 44 0 57 -8 46
-26 -5 -7 -23 -9 -51 -5 -26 3 -46 1 -50 -5 -4 -8 12 -10 50 -7 31 1 56 0 56
-4 0 -5 -6 -8 -12 -8 -9 -1 -8 -5 3 -13 12 -9 18 -38 23 -108 l7 -97 -29 -4
c-17 -2 -40 0 -53 6 -22 9 -19 11 26 16 45 5 47 7 23 14 -16 5 -39 5 -53 2
-31 -8 -33 7 -2 22 22 11 22 11 1 11 -32 1 -49 63 -21 74 7 3 5 6 -5 6 -37 2
-10 46 33 54 23 4 23 4 -3 6 -15 0 -30 -4 -33 -9 -14 -22 -26 4 -20 41 4 22 3
45 -3 52 -5 7 -12 29 -16 50 -7 37 -7 37 26 36 30 -1 31 -2 8 -8 -15 -4 -20
-10 -13 -14 6 -4 22 -3 36 2 14 5 27 7 30 5 3 -3 8 -1 12 5 3 7 -2 11 -14 11
-12 0 -21 4 -21 9 0 5 -14 8 -31 7 -50 -2 -47 22 3 27 24 2 50 4 59 5 11 1 17
-6 17 -20z"/>
<path d="M4030 2224 c-25 -7 -54 -19 -65 -26 -11 -6 -35 -14 -54 -17 -19 -4
-36 -11 -38 -17 -5 -14 68 -25 82 -13 16 15 28 10 15 -6 -24 -29 5 -15 40 20
48 47 97 56 139 25 22 -15 42 -21 67 -18 30 2 40 -2 60 -27 13 -17 24 -25 24
-18 0 6 -4 15 -10 18 -24 15 -8 26 29 20 23 -4 42 -2 45 4 8 13 -39 45 -57 38
-7 -2 -44 4 -82 14 -82 21 -133 22 -195 3z"/>
<path d="M6476 2119 c-57 -43 -82 -56 -87 -47 -9 15 -12 12 -24 -26 -6 -16
-14 -29 -20 -29 -5 1 -34 -12 -63 -29 -29 -16 -55 -28 -57 -26 -2 2 -5 39 -7
83 -2 63 -6 80 -18 81 -8 0 -22 4 -31 8 -23 10 -171 -12 -180 -26 -11 -18 -1
-28 30 -28 28 0 68 -34 90 -77 15 -30 3 -78 -35 -143 -18 -30 -28 -57 -22 -59
5 -2 38 11 73 29 62 31 66 32 126 21 34 -6 63 -12 64 -13 7 -8 7 -45 0 -61 -4
-10 -3 -37 2 -60 l9 -42 27 52 c15 29 27 59 27 67 0 8 12 26 27 40 15 14 25
27 23 29 -18 16 -93 58 -107 60 -30 4 -26 21 6 31 16 5 56 33 88 63 32 29 72
61 89 69 62 30 105 96 61 93 -7 0 -48 -27 -91 -60z"/>
<path d="M1564 2020 c3 -30 8 -63 12 -74 5 -14 3 -17 -7 -14 -13 4 -20 22 -34
91 -3 15 -10 27 -16 27 -7 0 -8 -7 -4 -17 3 -10 8 -36 10 -58 1 -22 6 -55 10
-72 5 -21 4 -33 -3 -33 -6 0 -13 14 -17 31 -4 17 -9 28 -12 25 -9 -9 18 -76
30 -73 6 1 13 -7 15 -17 3 -14 0 -17 -12 -13 -12 5 -14 1 -10 -21 21 -117 22
-127 11 -135 -8 -5 -4 -7 8 -4 12 2 18 9 16 18 -11 37 -13 101 -2 95 6 -4 11
-19 12 -34 0 -15 5 -36 10 -47 7 -16 8 -14 4 10 -12 76 -25 172 -24 195 0 36
14 8 28 -57 33 -155 31 -151 51 -146 15 4 18 11 13 37 -7 39 -13 46 -13 15 0
-23 0 -23 -14 -4 -7 11 -16 43 -19 70 -8 75 -28 196 -38 230 -7 24 -8 19 -5
-25z"/>
<path d="M981 1834 c-1 -22 -30 -54 -49 -54 -6 0 -14 -9 -17 -20 -3 -11 -15
-20 -26 -20 -10 0 -19 -4 -19 -10 0 -5 -17 -18 -37 -28 -27 -12 -37 -24 -36
-37 1 -18 -12 -34 -28 -35 -3 0 -13 36 -23 80 -9 44 -19 80 -22 80 -3 0 -20
-7 -37 -16 -18 -9 -41 -22 -52 -27 -11 -6 -33 -17 -50 -26 l-29 -15 29 -8 c17
-4 38 -5 48 -2 12 4 17 0 17 -13 0 -11 7 -28 15 -39 19 -25 19 -88 0 -104 -8
-7 -15 -16 -15 -21 0 -16 25 -9 63 16 46 32 72 22 81 -30 4 -19 11 -35 15 -35
5 0 16 -20 25 -45 20 -51 33 -58 34 -17 1 39 12 94 24 118 5 12 8 32 6 45 -3
22 -8 24 -55 24 -35 -1 -53 3 -53 11 0 7 40 47 89 91 96 84 116 110 108 139
-4 17 -5 17 -6 -2z"/>
<path d="M2498 1816 c-20 -15 -23 -42 -8 -80 5 -14 11 -48 14 -76 6 -62 64
-185 143 -299 2 -2 5 -2 8 1 6 6 -29 74 -46 93 -5 5 -9 15 -9 23 0 7 -7 20
-15 28 -21 21 -19 41 5 54 33 18 24 45 -19 62 -37 15 -39 18 -50 80 -6 36 -8
79 -5 97 7 35 6 36 -18 17z"/>
<path d="M4662 1653 c-18 -21 -32 -41 -32 -45 0 -5 -4 -8 -9 -8 -5 0 -26 -16
-45 -35 -20 -19 -42 -36 -49 -37 -6 0 -16 -2 -22 -3 -5 -2 -14 -3 -20 -4 -5
-1 -4 -5 3 -10 10 -6 -2 -16 -39 -36 -46 -24 -62 -27 -114 -23 -33 3 -78 14
-100 25 -24 11 -50 17 -65 13 -22 -5 -17 -9 40 -39 35 -19 78 -35 95 -37 16
-1 30 -3 30 -4 0 -1 14 -3 30 -4 17 -2 35 -5 40 -6 33 -10 224 99 225 128 0 7
11 17 24 22 18 7 24 16 24 42 1 18 5 48 11 66 5 17 8 32 7 32 -2 0 -17 -17
-34 -37z"/>
<path d="M5975 1596 c-29 -9 -39 -17 -37 -29 2 -9 -2 -17 -8 -17 -5 0 -10 7
-10 15 0 8 -4 15 -10 15 -14 0 -12 -26 3 -39 20 -16 -1 -118 -35 -169 -34 -50
-34 -52 -7 -52 15 0 19 5 15 15 -8 21 23 32 113 41 76 7 101 -2 101 -37 0 -11
5 -19 11 -19 11 0 10 -11 -6 -55 -6 -17 -4 -17 14 4 12 13 21 31 21 41 0 10 6
23 14 29 15 12 10 62 -8 73 -6 4 -22 8 -36 8 -14 0 -36 9 -50 19 -21 17 -25
29 -28 95 -2 42 -7 76 -11 75 -3 0 -24 -6 -46 -13z"/>
<path d="M7028 1560 c-31 -16 -63 -38 -70 -48 -16 -22 -118 -92 -135 -92 -8 0
-7 9 3 30 9 16 14 42 12 57 -3 24 -10 30 -48 40 -25 6 -45 12 -45 13 0 2 -11
4 -25 5 -14 1 -53 6 -87 10 -73 9 -76 4 -37 -55 21 -31 33 -40 55 -40 18 0 32
-7 39 -20 11 -21 9 -94 -3 -107 -4 -3 -7 -13 -7 -21 0 -9 -7 -24 -17 -34 -15
-17 -15 -18 13 -19 16 -1 34 0 39 1 34 7 154 5 176 -2 30 -10 39 -37 40 -122
l0 -51 14 45 c8 24 12 46 10 49 -3 2 0 10 5 16 10 12 40 115 40 135 0 14 -67
40 -102 40 -26 0 -29 2 -18 15 7 8 17 15 22 15 6 0 23 10 38 23 15 12 37 29
50 37 43 29 125 110 110 109 -8 0 -41 -13 -72 -29z"/>
<path d="M6130 1174 c0 -23 -7 -37 -26 -49 -26 -16 -26 -19 -20 -86 5 -46 4
-69 -3 -69 -6 0 -11 7 -11 15 0 8 -7 15 -15 15 -8 0 -15 -7 -15 -15 0 -9 7
-18 15 -21 8 -4 15 -15 15 -25 0 -15 7 -19 34 -19 37 0 46 12 46 61 0 27 8 34
37 30 8 -1 13 20 15 65 2 46 7 69 16 72 11 3 13 -15 10 -97 -2 -55 -2 -101 0
-101 2 0 10 7 19 16 12 11 13 18 4 27 -13 13 -15 87 -3 87 5 0 4 27 -1 60 -5
33 -14 60 -19 60 -5 0 -8 -7 -6 -16 2 -10 -2 -19 -9 -21 -6 -2 -13 6 -16 19
-2 13 -5 -2 -6 -32 -2 -44 -4 -51 -12 -35 -6 11 -19 36 -29 55 l-19 35 -1 -31z"/>
<path d="M2665 962 c-19 -13 -10 -41 26 -79 19 -21 48 -56 64 -78 33 -46 175
-198 190 -204 6 -2 28 -19 49 -38 22 -18 44 -33 49 -33 5 0 18 -12 30 -26 11
-15 45 -43 75 -63 30 -20 66 -44 81 -53 14 -10 42 -21 61 -24 19 -4 63 -19 97
-35 37 -16 65 -24 69 -18 4 6 11 6 20 -2 7 -6 21 -8 31 -5 24 10 3 26 -38 30
-19 1 -52 12 -74 23 -22 11 -58 26 -80 33 -45 14 -67 29 -60 40 7 12 -37 46
-90 69 -85 37 -255 161 -255 187 0 8 -5 14 -10 14 -6 0 -20 11 -32 25 -12 14
-28 25 -35 25 -16 0 -17 17 -1 22 9 3 9 6 0 12 -7 4 -12 2 -12 -3 0 -21 -19
-11 -46 25 -22 29 -25 37 -14 44 11 7 8 11 -12 19 -32 12 -58 47 -58 78 0 24
-8 28 -25 15z"/>
</g>
</svg>
